<!-- icon666.com - MILLIONS OF FREE VECTOR ICONS --><svg version="1.1" id="Layer_1" xmlns="http://www.w3.org/2000/svg" xmlns:xlink="http://www.w3.org/1999/xlink" x="0px" y="0px" viewBox="0 0 512 512" style="enable-background:new 0 0 512 512;" xml:space="preserve"><g><g><g><path d="M256,0C114.848,0,0,114.848,0,256s114.848,256,256,256s256-114.848,256-256S397.152,0,256,0z M256,480 C132.48,480,32,379.52,32,256S132.48,32,256,32s224,100.48,224,224S379.52,480,256,480z"></path><path d="M288,208h-64c-8.832,0-16,7.152-16,16v192c0,8.848,7.168,16,16,16h64c8.832,0,16-7.152,16-16V224 C304,215.152,296.832,208,288,208z M272,400h-32V240h32V400z"></path><path d="M256,96c-26.464,0-48,21.536-48,48s21.536,48,48,48s48-21.536,48-48S282.464,96,256,96z M256,160 c-8.816,0-16-7.168-16-16c0-8.832,7.184-16,16-16s16,7.168,16,16C272,152.832,264.816,160,256,160z"></path></g></g></g></svg>